<svg xmlns="http://www.w3.org/2000/svg" preserveAspectRatio="xMidYMid" viewBox="0 0 256 256">
  <defs>
    <linearGradient id="a" x1="50%" x2="50%" y1="0%" y2="100%">
      <stop offset="0%" stop-color="#17C9FB"/>
      <stop offset="100%" stop-color="#1A74E8"/>
    </linearGradient>
  </defs>
  <path fill="url(#a)" d="M56.0638 0h143.8724C230.8994 0 256 25.1006 256 56.0638v143.8724C256 230.8994 230.8994 256 199.9362 256H56.0638C25.1006 256 0 230.8994 0 199.9362V56.0638C0 25.1006 25.1006 0 56.0638 0Z"/>
  <path fill="#FFF" d="m82.0417 185.8103.024.0076-8.7526 15.16c-3.1948 5.5338-10.2713 7.4299-15.805 4.2348-5.5336-3.1945-7.4297-10.271-4.2349-15.8048l6.4479-11.1679.6187-1.0717c1.1051-1.5887 3.8322-4.3295 9.2872-3.8145 0 0 12.8368 1.3932 13.7656 8.065.0002 0 .1269 2.1957-1.351 4.3915Zm124.1434-38.721H178.891c-1.8586-.1244-2.6706-.7882-2.989-1.174l-.0203-.0353-29.2177-50.6061-.0377.0253-1.7525-2.5125c-2.8715-4.3914-7.4316 6.8406-7.4316 6.8406-5.4446 12.5155.7724 26.7452 2.9404 31.0459l40.5814 70.289c3.1945 5.5338 10.271 7.4299 15.8048 4.2348 5.5335-3.1945 7.4296-10.271 4.2348-15.8048l-10.1479-17.5762c-.1963-.4257-.5386-1.5822 1.5424-1.5868h13.7871c6.3899 0 11.57-5.18 11.57-11.57 0-6.3898-5.1801-11.57-11.57-11.57Zm-53.014 15.729s1.4568 7.4107-4.1804 7.4107h-5.6371v.0002H48.0919c-6.39 0-11.57-5.18-11.57-11.57 0-6.3898 5.18-11.57 11.57-11.57h25.94c4.188-.2426 5.1808-2.6601 5.1808-2.6601l.0228.0116 33.8604-58.6481-.0101-.002c.6174-1.133.1033-2.2035.0139-2.373l-11.1823-19.3682c-3.195-5.5338-1.299-12.61 4.2348-15.8048 5.5338-3.195 12.6097-1.299 15.8048 4.2348l5.1862 8.983 5.177-8.967c3.1948-5.5338 10.271-7.4299 15.8048-4.2348 5.5338 3.195 7.4299 10.2712 4.2348 15.8048l-47.1176 81.61c-.206.4967-.2691 1.2766 1.2637 1.4139H134.67l.006.2744s16.2781.2533 18.495 15.4546Z"/>
</svg>
