<svg xmlns="http://www.w3.org/2000/svg" preserveAspectRatio="xMidYMid" viewBox="0 0 256 283">
  <path fill="#EA4335" d="M119.5531 134.9164 1.06 259.0605c2.6963 9.5565 9.6584 17.3301 18.861 21.0595 9.2025 3.7294 19.6122 2.9957 28.2008-1.9875l133.327-75.9346-61.8956-67.2815Z"/>
  <path fill="#FBBC04" d="M239.3708 113.8136 181.7135 80.791l-64.8975 56.951 65.1624 64.2794 57.2158-32.6695C249.5257 163.9425 256 153.2447 256 141.5828c0-11.662-6.4743-22.3598-16.8058-27.7692h.1766Z"/>
  <path fill="#4285F4" d="M1.0599 23.4868A30.565 30.565 0 0 0 0 31.61v219.3273a32.3326 32.3326 0 0 0 1.0599 8.1232L123.6148 138.095 1.0599 23.4868Z"/>
  <path fill="#34A853" d="m120.4361 141.2737 61.2774-60.4828L48.5632 4.5032A32.8468 32.8468 0 0 0 32.0518 0C17.6444-.0285 4.9784 9.5342 1.0599 23.3985l119.3762 117.8752Z"/>
</svg>
